<svg width="200" height="61" viewBox="0 0 200 61" fill="none" xmlns="http://www.w3.org/2000/svg">
<path d="M30.4524 6.86255C26.1936 6.86255 22.7704 8.10487 20.4088 10.1776C20.1525 10.4026 19.9154 10.6414 19.685 10.885C17.6903 8.84185 14.866 7.62505 11.7503 7.62505C5.71512 7.62505 0.762512 12.3513 0.762512 18.2435C0.762512 24.1497 5.70619 28.975 11.7503 28.975C14.8488 28.975 17.6412 27.6607 19.6255 25.6585C19.872 25.9232 20.1306 26.1795 20.4073 26.4225C21.3109 27.2157 22.3729 27.8852 23.575 28.4121C23.3245 28.8306 23.0873 29.2805 22.8631 29.7599C22.8511 29.7626 22.8392 29.7656 22.8274 29.7688C21.3618 30.198 19.3645 31.236 17.6507 32.7593C15.9369 34.2825 14.4875 36.331 14.4875 38.7625C14.4875 39.7291 15.0462 40.527 15.7355 41.0663C16.4248 41.6057 17.2736 41.9375 18.1377 41.9375C19.8664 41.9375 21.2755 40.4985 21.2755 38.7625C21.2755 38.3761 21.3096 38.0349 21.3664 37.7155C21.3574 38.0709 21.35 38.4278 21.35 38.7937C21.35 41.8836 21.5501 44.2188 22.4506 46.03C20.8869 46.4971 19.6101 47.3671 18.6768 48.2669C18.0945 48.8283 17.6402 49.3993 17.3201 49.914C17 50.4287 16.775 50.8084 16.775 51.3705C16.775 51.957 17.0486 52.8159 17.8681 53.3408C18.6877 53.8657 19.9121 54.1376 21.9174 54.1376C23.6396 54.1376 25.2201 54.039 26.4582 53.7235C27.0772 53.5658 27.6176 53.3595 28.0621 53.0176C28.5066 52.6757 28.8484 52.1221 28.8484 51.5165C28.8484 51.1001 28.7633 50.6623 28.6489 50.2163C28.6901 50.2214 28.7296 50.231 28.771 50.2357C29.3203 50.2993 29.8771 50.3251 30.4509 50.3251C31.0239 50.3251 31.58 50.3003 32.1307 50.2357C32.207 50.2271 32.28 50.21 32.3556 50.2C32.2394 50.6526 32.1531 51.0964 32.1531 51.5165C32.1531 52.1219 32.4936 52.6742 32.9379 53.0161C33.3822 53.3581 33.923 53.5658 34.5419 53.7235C35.7796 54.039 37.3596 54.1376 39.0826 54.1376C41.0868 54.1376 42.3108 53.8656 43.1304 53.3408C43.9501 52.816 44.225 51.9576 44.225 51.3705C44.225 50.8084 44 50.4287 43.6799 49.914C43.3599 49.3993 42.9055 48.8283 42.3232 48.2669C41.3696 47.3475 40.0574 46.459 38.4467 46.0002C39.3387 44.212 39.65 41.8809 39.65 38.7937C39.65 38.4021 39.644 38.0196 39.6351 37.6396C39.7311 38.0495 39.7855 38.4662 39.7855 38.8876C39.7855 39.8436 40.3389 40.6362 41.035 41.1453C41.7312 41.6543 42.5927 41.9375 43.4625 41.9375C44.3324 41.9375 45.1224 41.6224 45.6711 41.0634C46.2198 40.5043 46.5125 39.7237 46.5125 38.8876C46.5125 36.4585 45.0813 34.4048 43.3612 32.8784C41.6487 31.3587 39.6316 30.3208 38.0833 29.8895C37.8316 29.3537 37.5513 28.8825 37.2761 28.4404C38.515 27.9092 39.6115 27.2321 40.5421 26.424C40.7727 26.2237 40.9843 26.0092 41.1944 25.794C43.1692 27.7299 45.9061 28.975 48.9311 28.975C54.9872 28.975 60.2375 24.178 60.2375 18.2435C60.2375 12.3229 54.9783 7.62505 48.9311 7.62505C45.8908 7.62505 43.1173 8.78821 41.1408 10.7555C40.9459 10.5586 40.7527 10.3604 40.5406 10.1761C38.1554 8.10529 34.7111 6.86255 30.4524 6.86255ZM30.4524 8.38755C34.4157 8.38755 37.4767 9.53481 39.5413 11.3273C41.6059 13.1199 42.7 15.5583 42.7 18.3C42.7 21.042 41.6055 23.4803 39.5413 25.2728C37.4771 27.0652 34.4172 28.2126 30.4524 28.2126C26.4875 28.2126 23.4538 27.0663 21.414 25.2757C19.3743 23.4852 18.3 21.0461 18.3 18.3C18.3 15.5541 19.3739 13.115 21.414 11.3244C23.4542 9.53373 26.4891 8.38755 30.4524 8.38755ZM11.7503 9.15005C14.5364 9.15005 17.0132 10.2512 18.72 12.069C18.2405 12.7502 17.8507 13.4824 17.5464 14.2522C17.0685 13.8621 16.4181 13.3978 15.5821 12.9938C15.4677 12.9364 15.3407 12.9088 15.2128 12.9134C15.0416 12.9194 14.8773 12.9829 14.7466 13.0937C14.6159 13.2044 14.5263 13.356 14.4922 13.5239C14.4582 13.6918 14.4816 13.8663 14.5589 14.0192C14.6361 14.1722 14.7626 14.2946 14.9179 14.3669C15.9153 14.8489 16.6249 15.4431 17.0178 15.8085C17.0289 15.8183 17.0403 15.8277 17.052 15.8368C16.8731 16.6333 16.775 17.4565 16.775 18.3C16.775 20.5554 17.4373 22.6757 18.6738 24.4626C16.9551 26.2629 14.4847 27.4501 11.7503 27.4501C6.51542 27.4501 2.28751 23.2989 2.28751 18.2435C2.28751 13.2044 6.50649 9.15005 11.7503 9.15005ZM48.9311 9.15005C54.1887 9.15005 58.7125 13.2329 58.7125 18.2435C58.7125 23.2706 54.1798 27.4501 48.9311 27.4501C46.283 27.4501 43.8906 26.3426 42.1847 24.6324C43.5133 22.8131 44.225 20.6277 44.225 18.3C44.225 17.4576 44.1263 16.6363 43.945 15.8413C43.9557 15.8326 43.9661 15.8237 43.9763 15.8145C44.4593 15.3752 45.4104 14.6054 46.7791 14.0959C46.9481 14.0352 47.0903 13.9168 47.1806 13.7616C47.2709 13.6064 47.3036 13.4243 47.2728 13.2474C47.242 13.0705 47.1497 12.9101 47.0123 12.7945C46.8748 12.6789 46.701 12.6155 46.5214 12.6156C46.4273 12.6153 46.3339 12.6324 46.2459 12.6662C45.0078 13.1271 44.0712 13.7598 43.4446 14.2627C43.1111 13.429 42.683 12.635 42.143 11.9067C43.8273 10.1899 46.2374 9.15005 48.9311 9.15005ZM49.491 12.0064L48.8804 12.3132L48.7598 12.9849L49.2259 13.4838L49.491 13.5314L50.1016 13.2261L50.2223 12.553L49.7561 12.0541L49.491 12.0064ZM12.3296 12.0839L11.719 12.3907L11.5984 13.0623L12.066 13.5612L12.3296 13.6089L12.9402 13.3036L13.0608 12.6304L12.5947 12.1315L12.3296 12.0839ZM9.30936 12.2358L8.69877 12.5411L8.57814 13.2142L9.04427 13.7131L9.30936 13.7608L9.91996 13.454L10.0406 12.7809L9.57445 12.282L9.30936 12.2358ZM52.474 12.4666L51.8634 12.7719L51.7428 13.4451L52.2089 13.944L52.474 13.9916L53.0846 13.6848L53.2052 13.0132L52.7391 12.5128L52.474 12.4666ZM25.7984 12.7004C24.3318 12.6153 23.3263 13.2708 23.3263 13.2708C23.2394 13.3251 23.1643 13.3963 23.1055 13.4802C23.0468 13.5642 23.0055 13.6591 22.9843 13.7593C22.963 13.8595 22.9622 13.963 22.9818 14.0635C23.0014 14.1641 23.041 14.2597 23.0984 14.3446C23.1557 14.4294 23.2296 14.5019 23.3156 14.5576C23.4016 14.6133 23.4979 14.6511 23.5988 14.6688C23.6997 14.6864 23.8032 14.6836 23.903 14.6604C24.0027 14.6372 24.0968 14.5941 24.1796 14.5337C24.1796 14.5337 24.8865 14.0238 26.1469 14.282C26.2451 14.3022 26.3463 14.3028 26.4447 14.2838C26.5431 14.2649 26.6368 14.2267 26.7205 14.1715C26.8041 14.1164 26.8761 14.0452 26.9323 13.9622C26.9885 13.8792 27.0278 13.786 27.0479 13.6878C27.0681 13.5896 27.0687 13.4885 27.0497 13.39C27.0307 13.2916 26.9926 13.1979 26.9374 13.1143C26.8822 13.0306 26.8111 12.9586 26.7281 12.9024C26.6451 12.8462 26.5519 12.807 26.4537 12.7868C26.227 12.7404 26.0079 12.7126 25.7984 12.7004ZM35.1048 12.7004C34.8953 12.7126 34.6763 12.7404 34.4495 12.7868C34.2512 12.8273 34.0772 12.9449 33.9656 13.1137C33.854 13.2826 33.8141 13.4888 33.8546 13.6871C33.8951 13.8854 34.0126 14.0594 34.1815 14.171C34.3503 14.2826 34.5565 14.3225 34.7548 14.282C36.0153 14.0238 36.7221 14.5337 36.7221 14.5337C36.805 14.5915 36.8985 14.6323 36.9973 14.6536C37.0961 14.675 37.1981 14.6765 37.2974 14.658C37.3968 14.6396 37.4915 14.6016 37.576 14.5463C37.6606 14.491 37.7333 14.4194 37.7899 14.3357C37.8465 14.252 37.886 14.1579 37.9059 14.0589C37.9259 13.9598 37.926 13.8578 37.9062 13.7587C37.8864 13.6597 37.847 13.5655 37.7905 13.4817C37.734 13.398 37.6614 13.3263 37.577 13.2708C37.577 13.2708 36.5714 12.6153 35.1048 12.7004ZM6.81783 13.9231L6.20724 14.2299L6.08661 14.9016L6.55275 15.4005L6.81783 15.4481L7.42843 15.1428L7.54906 14.4697L7.08292 13.9708L6.81783 13.9231ZM54.7928 14.3878L54.1822 14.6931L54.0616 15.3662L54.5277 15.8651L54.7928 15.9128L55.4034 15.606L55.524 14.9343L55.0579 14.4354L54.7928 14.3878ZM5.44325 16.6083L4.83116 16.915L4.71202 17.5867L5.17816 18.0856L5.44325 18.1333L6.05384 17.828L6.17448 17.1548L5.70685 16.6559L5.44325 16.6083ZM55.9187 17.1801L55.3081 17.4854L55.1874 18.1586L55.6536 18.6575L55.9187 18.7051L56.5293 18.3983L56.6499 17.7267L56.1823 17.2278L55.9187 17.1801ZM25.1625 17.5375C24.5558 17.5375 23.974 17.7786 23.545 18.2075C23.116 18.6365 22.875 19.2184 22.875 19.825C22.875 20.4317 23.116 21.0136 23.545 21.4426C23.974 21.8715 24.5558 22.1125 25.1625 22.1125C25.7692 22.1125 26.351 21.8715 26.78 21.4426C27.209 21.0136 27.45 20.4317 27.45 19.825C27.45 19.2184 27.209 18.6365 26.78 18.2075C26.351 17.7786 25.7692 17.5375 25.1625 17.5375ZM35.8375 17.5375C35.2308 17.5375 34.649 17.7786 34.22 18.2075C33.791 18.6365 33.55 19.2184 33.55 19.825C33.55 20.4317 33.791 21.0136 34.22 21.4426C34.649 21.8715 35.2308 22.1125 35.8375 22.1125C36.4442 22.1125 37.026 21.8715 37.455 21.4426C37.884 21.0136 38.125 20.4317 38.125 19.825C38.125 19.2184 37.884 18.6365 37.455 18.2075C37.026 17.7786 36.4442 17.5375 35.8375 17.5375ZM5.8379 19.5689L5.22731 19.8742L5.10668 20.5473L5.5743 21.0462L5.8379 21.0939L6.4485 20.7871L6.56913 20.1155L6.10299 19.6166L5.8379 19.5689ZM55.1174 20.0529L54.5068 20.3582L54.3862 21.0313L54.8524 21.5302L55.1174 21.5779L55.728 21.2711L55.8487 20.5995L55.3825 20.0991L55.1174 20.0529ZM30.4985 21.35L28.975 22.875H32.025L30.4985 21.35ZM8.0286 21.6181L7.41801 21.9249L7.29738 22.5966L7.765 23.0955L8.0286 23.1431L8.6392 22.8378L8.75983 22.1647L8.29369 21.6658L8.0286 21.6181ZM52.6959 21.8385L52.0853 22.1453L51.9647 22.817L52.4308 23.3159L52.6959 23.3635L53.3065 23.0582L53.4271 22.3851L52.9595 21.8862L52.6959 21.8385ZM28.2125 24.4C28.2125 24.4 29.3898 26.6875 30.5 26.6875C31.6102 26.6875 32.7875 24.4 32.7875 24.4H30.5H28.2125ZM25.0285 28.9468C25.4919 29.0926 25.9742 29.2172 26.4716 29.3235C26.1035 30.1677 25.7851 31.004 25.5542 31.8166C25.5254 31.9133 25.5161 32.0148 25.5268 32.1152C25.5375 32.2155 25.5681 32.3128 25.6167 32.4012C25.6653 32.4897 25.7309 32.5676 25.8099 32.6305C25.8888 32.6934 25.9795 32.74 26.0766 32.7676C26.1736 32.7952 26.2752 32.8033 26.3755 32.7913C26.4757 32.7794 26.5726 32.7476 26.6604 32.6979C26.7483 32.6482 26.8254 32.5816 26.8873 32.5019C26.9492 32.4222 26.9947 32.331 27.0211 32.2335C27.2646 31.3765 27.604 30.4858 28.0204 29.5797C28.8 29.6748 29.6047 29.7376 30.4524 29.7376C31.3335 29.7376 32.1704 29.6719 32.9796 29.5693C33.2815 30.2243 33.5443 30.8712 33.754 31.5023C33.7819 31.6016 33.8296 31.6942 33.8943 31.7745C33.959 31.8548 34.0393 31.9212 34.1304 31.9696C34.2215 32.018 34.3214 32.0474 34.4242 32.056C34.5269 32.0647 34.6304 32.0524 34.7282 32.02C34.8261 31.9875 34.9164 31.9355 34.9936 31.8672C35.0709 31.7988 35.1334 31.7155 35.1775 31.6223C35.2216 31.5291 35.2464 31.4279 35.2503 31.3249C35.2541 31.2218 35.2371 31.119 35.2001 31.0228C35.0126 30.4586 34.7808 29.8847 34.5285 29.3072C34.9704 29.2105 35.3982 29.0969 35.8137 28.9691C36.2009 29.5862 36.5915 30.2182 36.8621 30.8843C37.218 31.7896 37.5207 32.8052 37.7497 33.9L37.7557 33.9268C38.0419 35.382 38.125 36.9982 38.125 38.7937C38.125 42.015 37.7469 44.2197 36.9098 45.6607V45.6622C35.734 47.6907 34.1561 48.4755 31.9565 48.7211H31.955H31.9535C31.4765 48.777 30.9804 48.8001 30.4509 48.8001C29.9221 48.8001 29.4253 48.7765 28.9467 48.7211H28.9452H28.9437C26.7442 48.4747 25.1435 47.6873 23.9696 45.6622V45.6607C23.1465 44.2438 22.875 42.0344 22.875 38.7937C22.875 37.0044 22.9784 35.3892 23.2652 33.9268L23.2771 33.8688L23.2801 33.8539C23.5128 32.724 23.6911 31.7195 24.0173 30.8858L24.0188 30.8828C24.3038 30.1836 24.6569 29.5475 25.0285 28.9468ZM22.1974 31.6334C22.0362 32.2822 21.9105 32.9429 21.7715 33.6141C21.6439 33.6815 21.538 33.7838 21.4662 33.909C20.6036 35.2902 19.7505 36.6394 19.7505 38.7625C19.7505 39.6799 19.0213 40.4126 18.1377 40.4126C17.6964 40.4126 17.1037 40.2013 16.6752 39.866C16.2467 39.5307 16.0125 39.1226 16.0125 38.7625C16.0125 36.9483 17.1403 35.2522 18.6634 33.8985C19.7853 32.9014 21.109 32.117 22.1974 31.6334ZM38.7714 31.757C39.8967 32.2412 41.2279 33.0234 42.35 34.0192C43.8746 35.3721 44.9875 37.0672 44.9875 38.8876C44.9875 39.3797 44.8304 39.7429 44.5824 39.9956C44.3345 40.2482 43.9812 40.4126 43.4625 40.4126C42.9438 40.4126 42.3484 40.2163 41.9345 39.9137C41.5207 39.611 41.3105 39.2597 41.3105 38.8876C41.3105 36.7019 40.2445 34.8352 39.2971 33.4071C39.2586 33.3495 39.2125 33.2974 39.16 33.2522C39.044 32.7384 38.9172 32.2359 38.7714 31.757ZM35.1271 33.1301L34.5165 33.4354L34.3959 34.1085L34.8635 34.6074L35.1271 34.6551L35.7392 34.3483L35.8584 33.6766L35.3922 33.1777L35.1271 33.1301ZM25.7389 34.2574L25.1268 34.5642L25.0076 35.2359L25.4738 35.7348L25.7389 35.7824L26.3495 35.4771L26.4701 34.804L26.0025 34.3051L25.7389 34.2574ZM35.2731 36.1697L34.6625 36.475L34.5419 37.1481L35.008 37.647L35.2731 37.6947L35.8837 37.3879L36.0043 36.7147L35.5367 36.2158L35.2731 36.1697ZM25.8744 37.294L25.2623 37.6008L25.1432 38.2725L25.6093 38.7714L25.8744 38.819L26.485 38.5137L26.6056 37.8406L26.138 37.3417L25.8744 37.294ZM34.5508 39.1139L33.9402 39.4207L33.8196 40.0938L34.2872 40.5928L34.5508 40.6389L35.1614 40.3336L35.282 39.6605L34.8159 39.1616L34.5508 39.1139ZM27.0315 40.0864L26.4209 40.3932L26.3003 41.0663L26.7679 41.5652L27.0315 41.6114L27.6421 41.3061L27.7628 40.633L27.2966 40.1341L27.0315 40.0864ZM32.5194 41.3091L31.9088 41.6144L31.7882 42.2875L32.2558 42.7864L32.5194 42.8341L33.1315 42.5273L33.2507 41.8556L32.7845 41.3567L32.5194 41.3091ZM29.5499 41.6725L28.9393 41.9793L28.8186 42.6509L29.2863 43.1498L29.5499 43.1975L30.1605 42.8922L30.2811 42.219L29.815 41.7201L29.5499 41.6725ZM37.5963 47.357C39.1145 47.6843 40.3716 48.5024 41.2659 49.3645C41.7587 49.8396 42.1393 50.3257 42.3843 50.7197C42.6293 51.1137 42.7 51.4919 42.7 51.3705C42.7 51.6526 42.7142 51.7972 42.3083 52.0571C41.9025 52.3169 40.9374 52.6126 39.0826 52.6126C37.4231 52.6126 35.9188 52.4996 34.9186 52.2447C34.4185 52.1173 34.0508 51.9496 33.8672 51.8084C33.6837 51.6671 33.6781 51.6293 33.6781 51.5165C33.6781 51.16 33.8023 50.5567 34.0206 49.9125L33.903 49.8723C35.3361 49.4322 36.6019 48.6305 37.5963 47.357ZM23.3039 47.3763C24.3129 48.6552 25.5999 49.4553 27.0524 49.8887L26.9779 49.914C27.1966 50.5587 27.3234 51.1613 27.3234 51.5165C27.3234 51.6291 27.3166 51.667 27.1328 51.8084C26.9491 51.9497 26.5817 52.1172 26.0814 52.2447C25.0807 52.4996 23.5761 52.6126 21.9174 52.6126C20.0615 52.6126 19.0971 52.3167 18.6917 52.0571C18.2863 51.7974 18.3 51.6533 18.3 51.3705C18.3 51.4919 18.3707 51.1137 18.6157 50.7197C18.8608 50.3257 19.2414 49.8396 19.7342 49.3645C20.609 48.521 21.8299 47.7174 23.3039 47.3763Z" fill="black"/>
<path d="M93.4 14.3H95.1V26H93.4V16.675L86.45 26H84.75V14.3H86.45V23.75L93.4 14.3Z" fill="black"/>
<path d="M102.968 26V14.3H110.768V15.85H104.668V26H102.968Z" fill="black"/>
<path d="M122.904 13.9C124.021 13.9 125.021 14.1667 125.904 14.7C126.788 15.2334 127.479 15.975 127.979 16.925C128.479 17.875 128.729 18.9584 128.729 20.175C128.729 21.375 128.479 22.45 127.979 23.4C127.496 24.3334 126.813 25.0667 125.929 25.6C125.063 26.1334 124.071 26.4 122.954 26.4C122.104 26.4 121.321 26.2167 120.604 25.85C119.904 25.4667 119.313 24.9334 118.829 24.25V31H117.129V14.3H118.829V16.025C119.313 15.3584 119.904 14.8417 120.604 14.475C121.304 14.0917 122.071 13.9 122.904 13.9ZM122.954 24.85C123.738 24.85 124.438 24.65 125.054 24.25C125.671 23.85 126.154 23.3 126.504 22.6C126.854 21.8834 127.029 21.075 127.029 20.175C127.029 19.2584 126.854 18.4417 126.504 17.725C126.154 17.0084 125.671 16.45 125.054 16.05C124.438 15.65 123.738 15.45 122.954 15.45C122.154 15.45 121.438 15.65 120.804 16.05C120.188 16.45 119.704 17.0084 119.354 17.725C119.004 18.4417 118.829 19.25 118.829 20.15C118.829 21.05 119.004 21.8584 119.354 22.575C119.704 23.2917 120.188 23.85 120.804 24.25C121.438 24.65 122.154 24.85 122.954 24.85Z" fill="black"/>
<path d="M143.543 14.3H145.143L138.818 31H137.118L138.968 26.225L134.168 14.3H135.943L139.818 24L143.543 14.3Z" fill="black"/>
<path d="M151.098 26V14.3H152.798V24.45H157.298V14.3H158.998V24.45H163.498V14.3H165.198V26H151.098Z" fill="black"/>
<path d="M182.335 26H180.41L176.285 20.7H174.41V26H172.71V14.3H174.41V19.15H176.31L179.96 14.3H181.86L177.61 19.85L182.335 26Z" fill="black"/>
<path d="M197.482 14.3H199.182V26H197.482V16.675L190.532 26H188.832V14.3H190.532V23.75L197.482 14.3Z" fill="black"/>
<path d="M84.575 51V39.3H86.275V49.45H90.775V39.3H92.475V49.45H96.975V39.3H98.675V51H84.575Z" fill="black"/>
<path d="M111.286 51.4C110.17 51.4 109.17 51.1334 108.286 50.6C107.403 50.0667 106.711 49.325 106.211 48.375C105.711 47.4084 105.461 46.325 105.461 45.125C105.461 43.925 105.703 42.8584 106.186 41.925C106.686 40.975 107.37 40.2334 108.236 39.7C109.12 39.1667 110.12 38.9 111.236 38.9C112.353 38.9 113.353 39.1667 114.236 39.7C115.12 40.2334 115.811 40.975 116.311 41.925C116.811 42.875 117.061 43.95 117.061 45.15C117.061 46.35 116.811 47.425 116.311 48.375C115.828 49.325 115.145 50.0667 114.261 50.6C113.395 51.1334 112.403 51.4 111.286 51.4ZM111.236 49.85C112.036 49.85 112.745 49.65 113.361 49.25C113.995 48.85 114.486 48.2917 114.836 47.575C115.186 46.8584 115.361 46.05 115.361 45.15C115.361 44.25 115.186 43.4417 114.836 42.725C114.486 42.0084 113.995 41.45 113.361 41.05C112.745 40.65 112.036 40.45 111.236 40.45C110.453 40.45 109.753 40.65 109.136 41.05C108.52 41.45 108.036 42.0084 107.686 42.725C107.336 43.425 107.161 44.225 107.161 45.125C107.161 46.0417 107.336 46.8584 107.686 47.575C108.036 48.2917 108.52 48.85 109.136 49.25C109.753 49.65 110.453 49.85 111.236 49.85Z" fill="black"/>
<path d="M124.018 51V39.3H133.868V51H132.168V40.85H125.718V51H124.018Z" fill="black"/>
</svg>
